<svg xmlns="http://www.w3.org/2000/svg" xmlns:xlink="http://www.w3.org/1999/xlink" version="1.1" id="Layer_1" x="0px" y="0px" viewBox="0 0 256 256" style="enable-background:new 0 0 256 256;" xml:space="preserve">
<style type="text/css">
	.st0{fill-rule:evenodd;clip-rule:evenodd;fill:#50AF95;}
	.st1{fill-rule:evenodd;clip-rule:evenodd;fill:#FFFFFF;}
	.st2{fill:#2B2E35;}
	.st3{fill:#F3BA2F;}
</style>
<g>
	<g>
		<path class="st0" d="M46.9,13.7l-46.7,98c-0.4,0.7-0.2,1.6,0.4,2.2l126.1,120.8c0.7,0.7,1.9,0.7,2.7,0l126-120.7    c0.6-0.6,0.8-1.5,0.4-2.2l-46.7-98c-0.3-0.7-1-1.1-1.7-1.1H48.6C47.9,12.6,47.2,13.1,46.9,13.7z"/>
		<path class="st1" d="M144.2,121.9c-0.9,0.1-5.6,0.3-16,0.3c-8.3,0-14.2-0.2-16.3-0.3c-32.1-1.4-56-7-56-13.7s23.9-12.3,56-13.7    v21.8c2.1,0.2,8.1,0.5,16.4,0.5c10,0,14.9-0.4,15.8-0.5V94.5c32,1.4,55.9,7,55.9,13.7S176.2,120.4,144.2,121.9z M144.2,92.3V72.7    h44.7V43H67.3v29.8h44.6v19.5c-36.3,1.7-63.6,8.9-63.6,17.5s27.3,15.8,63.6,17.5v62.5h32.3v-62.5c36.2-1.7,63.4-8.8,63.4-17.5    S180.4,93.9,144.2,92.3L144.2,92.3z"/>
	</g>
</g>
<g>
	<circle class="st2" cx="193.2" cy="193.2" r="62.8"/>
	<g>
		<path class="st3" d="M174.3,185.4l18.8-18.8l18.9,18.9l11-11l-29.8-29.8l-29.8,29.8L174.3,185.4 M144.6,193.1l11-11l11,11l-11,11    L144.6,193.1z M174.3,200.9l18.8,18.8l18.9-18.9l11,11l-29.8,29.8l-29.9-29.7L174.3,200.9 M219.7,193.2l11-11l11,11l-11,11    L219.7,193.2z"/>
		<path class="st3" d="M204.3,193.1L193.2,182l-8.2,8.2l-0.9,0.9l-1.9,1.9l11.1,11.1L204.3,193.1"/>
	</g>
</g>
</svg>